<svg width="24" height="24" viewBox="0 0 24 24" fill="none" xmlns="http://www.w3.org/2000/svg">
<g id="food">
<g id="Group">
<path id="Vector" d="M10.5 3C10.05 3 9.75 3.3 9.75 3.75V20.325C9.75 21.525 10.725 22.5 11.925 22.5C12.525 22.5 13.125 22.2 13.575 21.75C13.95 21.3 14.175 20.7 14.1 20.1L13.725 16.35C13.65 15.75 14.025 15.15 14.55 14.925C14.85 14.775 15 14.55 15 14.25V7.5C15 5.025 12.975 3 10.5 3Z" fill="white"/>
<path id="Vector_2" d="M20.775 13.2C20.7 12.45 20.925 11.7 21.45 11.1C22.125 10.35 22.5 9.225 22.5 7.875C22.5 5.1 21.15 3 19.5 3C17.85 3 16.5 5.1 16.5 7.875C16.5 9.3 16.875 10.425 17.55 11.1C18.075 11.7 18.3 12.45 18.225 13.2L17.475 20.175C17.4 20.775 17.55 21.375 17.925 21.825C18.3 22.275 18.9 22.5 19.5 22.5C20.1 22.5 20.625 22.275 21.075 21.825C21.45 21.375 21.675 20.775 21.525 20.25L20.775 13.2Z" fill="white"/>
</g>
<path id="Vector_3" d="M7.5 7.875V3.75C7.5 3.3 7.2 3 6.75 3C6.3 3 6 3.3 6 3.75V7.875C6 8.025 6 8.175 6 8.25H5.25V3.75C5.25 3.3 4.95 3 4.5 3C4.05 3 3.75 3.3 3.75 3.75V8.25H3C3 8.1 3 7.95 3 7.875V3.75C3 3.3 2.7 3 2.25 3C1.8 3 1.5 3.3 1.5 3.75V7.875C1.5 9.3 1.875 10.425 2.55 11.1C3.075 11.7 3.3 12.45 3.225 13.2L2.475 20.175C2.4 20.775 2.55 21.375 2.925 21.825C3.375 22.275 3.9 22.5 4.5 22.5C5.1 22.5 5.625 22.275 6.075 21.825C6.45 21.375 6.675 20.775 6.525 20.25L5.775 13.275C5.7 12.525 5.925 11.775 6.45 11.175C7.125 10.35 7.5 9.225 7.5 7.875Z" fill="white"/>
</g>
</svg>
