<svg width="24" height="24" viewBox="0 0 24 24" fill="none" xmlns="http://www.w3.org/2000/svg">
<g id="money">
<path id="Vector" d="M16 4H4C3.46957 4 2.96086 4.21071 2.58579 4.58579C2.21071 4.96086 2 5.46957 2 6V14C2 14.5304 2.21071 15.0391 2.58579 15.4142C2.96086 15.7893 3.46957 16 4 16H16C16.5304 16 17.0391 15.7893 17.4142 15.4142C17.7893 15.0391 18 14.5304 18 14V6C18 5.46957 17.7893 4.96086 17.4142 4.58579C17.0391 4.21071 16.5304 4 16 4ZM10 12C9.60444 12 9.21776 11.8827 8.88886 11.6629C8.55996 11.4432 8.30362 11.1308 8.15224 10.7654C8.00087 10.3999 7.96126 9.99778 8.03843 9.60982C8.1156 9.22186 8.30608 8.86549 8.58579 8.58579C8.86549 8.30608 9.22186 8.1156 9.60982 8.03843C9.99778 7.96126 10.3999 8.00087 10.7654 8.15224C11.1308 8.30362 11.4432 8.55996 11.6629 8.88886C11.8827 9.21776 12 9.60444 12 10C12 10.5304 11.7893 11.0391 11.4142 11.4142C11.0391 11.7893 10.5304 12 10 12ZM22 10V18C22 18.5304 21.7893 19.0391 21.4142 19.4142C21.0391 19.7893 20.5304 20 20 20H8C7.46957 20 6.96086 19.7893 6.58579 19.4142C6.21071 19.0391 6 18.5304 6 18V17H16C16.7956 17 17.5587 16.6839 18.1213 16.1213C18.6839 15.5587 19 14.7956 19 14V8H20C20.5304 8 21.0391 8.21071 21.4142 8.58579C21.7893 8.96086 22 9.46957 22 10Z" fill="white"/>
</g>
</svg>
