<svg width="24" height="24" viewBox="0 0 24 24" fill="none" xmlns="http://www.w3.org/2000/svg">
<g id="flight_svgrepo.com">
<path id="Vector" d="M5.20055 6.6999L8.08813 9.58748L8.08055 9.61274L5.88771 17.6843C5.85017 17.8607 5.85474 18.0434 5.90105 18.2177C5.94736 18.3919 6.0341 18.5528 6.15424 18.6873L6.87803 19.4111C6.92483 19.4657 6.98466 19.5077 7.05198 19.5331C7.1193 19.5585 7.19195 19.5666 7.2632 19.5565C7.33445 19.5465 7.40202 19.5186 7.45966 19.4755C7.5173 19.4324 7.56315 19.3755 7.59297 19.31L10.5589 13.9416L11.4999 12.9993L13.9883 15.4877C14.2736 15.7422 14.5923 15.9564 14.9357 16.1243L14.3799 17.9521C14.3377 18.1264 14.3386 18.3082 14.3824 18.4821C14.4262 18.6559 14.5116 18.8165 14.6313 18.95L14.8523 19.1723C14.9652 19.2843 15.1178 19.3472 15.2768 19.3472C15.4358 19.3472 15.5883 19.2843 15.7012 19.1723L17.0149 17.8599L17.0376 17.8346L18.033 16.8418L18.0582 16.8165L19.3694 15.5041C19.4814 15.3912 19.5442 15.2387 19.5442 15.0797C19.5442 14.9207 19.4814 14.7681 19.3694 14.6553L19.1471 14.433C19.0134 14.3137 18.8527 14.2287 18.6788 14.1854C18.505 14.142 18.3232 14.1416 18.1492 14.1841L16.3214 14.7374C16.1533 14.3941 15.9391 14.0753 15.6848 13.79L13.1963 11.3016L14.1387 10.3618L19.5071 7.3959C19.5726 7.36607 19.6295 7.32022 19.6726 7.26259C19.7157 7.20495 19.7435 7.13738 19.7536 7.06613C19.7637 6.99487 19.7556 6.92223 19.7302 6.85491C19.7048 6.78759 19.6628 6.72776 19.6081 6.68095L18.8843 5.95716C18.7498 5.83711 18.5889 5.75043 18.4147 5.70413C18.2405 5.65782 18.0578 5.6532 17.8814 5.69064L9.80982 7.88348L9.78455 7.89106L6.89697 5.00348C6.4296 4.53358 4.84939 3.71506 4.3795 4.18242C3.91213 4.65232 4.73192 6.23127 5.20055 6.6999Z" fill="white"/>
</g>
</svg>
