<svg width="188" height="188" viewBox="0 0 188 188" fill="none" xmlns="http://www.w3.org/2000/svg">
<g id="QR_code_for_mobile_English_Wikipedia (1) 1" filter="url(#filter0_f_3181_4494)">
<path id="Vector" d="M20.2656 149.494V131.758H55.7386V167.231H20.2656V149.494ZM50.671 149.494V136.826H25.3332V162.163H50.671V149.494ZM30.4008 149.494V141.893H45.6035V157.096H30.4008V149.494ZM65.8737 164.697V162.163H60.8062V152.028H65.8737V136.826H70.9413V131.758H60.8062V126.69H40.5359V121.623H45.6035V116.555H35.4683V126.69H30.4008V121.623H20.2656V116.555H30.4008V106.42H25.3332V111.488H20.2656V101.353H30.4008V106.42H35.4683V111.488H40.5359V106.42H45.6035V111.488H55.7386V106.42H50.671V101.353H35.4683V96.285H50.671V91.2174H35.4683V86.1499H30.4008V91.2174H20.2656V76.0147H25.3332V81.0823H55.7386V76.0147H50.671V70.9472H40.5359V76.0147H35.4683V70.9472H25.3332V60.812H35.4683V70.9472H40.5359V65.8796H50.671V60.812H55.7386V65.8796H50.671V70.9472H55.7386V76.0147H60.8062V65.8796H65.8737V60.812H60.8062V45.6093H70.9413V50.6769H76.0089V55.7445H70.9413V60.812H76.0089V91.2174H65.8737V86.1499H60.8062V91.2174H55.7386V96.285H50.671V101.353H55.7386V106.42H60.8062V111.488H70.9413V106.42H65.8737V101.353H60.8062V96.285H70.9413V106.42H76.0089V96.285H81.0764V106.42H86.144V91.2174H91.2116V86.1499H96.2791V91.2174H91.2116V96.285H96.2791V101.353H111.482V96.285H106.414V91.2174H101.347V81.0823H96.2791V76.0147H101.347V70.9472H106.414V65.8796H101.347V60.812H96.2791V70.9472H91.2116V65.8796H86.144V70.9472H81.0764V65.8796H86.144V60.812H81.0764V45.6093H76.0089V40.5418H81.0764V45.6093H86.144V25.3391H91.2116V35.4742H101.347V30.4066H96.2791V20.2715H106.414V25.3391H101.347V30.4066H111.482V25.3391H116.549V20.2715H126.685V35.4742H116.549V30.4066H111.482V40.5418H116.549V55.7445H121.617V50.6769H126.685V76.0147H136.82V70.9472H131.752V60.812H141.887V76.0147H152.022V70.9472H146.955V60.812H152.022V70.9472H157.09V65.8796H167.225V76.0147H162.158V70.9472H157.09V76.0147H152.022V91.2174H157.09V96.285H152.022V101.353H141.887V106.42H136.82V111.488H126.685V106.42H121.617V101.353H116.549V111.488H121.617V116.555H136.82V121.623H146.955V116.555H141.887V111.488H146.955V106.42H152.022V111.488H157.09V116.555H162.158V106.42H157.09V101.353H167.225V116.555H162.158V126.69H167.225V136.826H162.158V152.028H167.225V157.096H152.022V167.231H136.82V162.163H146.955V157.096H136.82V146.961H131.752V157.096H126.685V162.163H131.752V167.231H121.617V152.028H116.549V162.163H111.482V157.096H106.414V136.826H111.482V152.028H116.549V136.826H121.617V126.69H116.549V121.623H111.482V116.555H116.549V111.488H111.482V106.42H106.414V126.69H111.482V131.758H101.347V141.893H96.2791V152.028H101.347V157.096H96.2791V162.163H106.414V167.231H96.2791V162.163H91.2116V157.096H86.144V167.231H65.8737V164.697ZM81.0764 157.096V152.028H86.144V136.826H76.0089V141.893H81.0764V146.961H70.9413V152.028H65.8737V157.096H70.9413V162.163H81.0764V157.096ZM152.022 152.028V146.961H157.09V136.826H162.158V131.758H157.09V116.555H152.022V131.758H157.09V136.826H152.022V141.893H146.955V157.096H152.022V152.028ZM126.685 149.494V146.961H121.617V152.028H126.685V149.494ZM96.2791 139.359V136.826H91.2116V141.893H96.2791V139.359ZM141.887 134.292V126.69H126.685V141.893H141.887V134.292ZM131.752 134.292V131.758H136.82V136.826H131.752V134.292ZM91.2116 129.224V126.69H101.347V121.623H91.2116V116.555H86.144V121.623H91.2116V126.69H81.0764V121.623H76.0089V126.69H70.9413V121.623H65.8737V116.555H60.8062V111.488H55.7386V116.555H50.671V121.623H55.7386V116.555H60.8062V121.623H65.8737V126.69H70.9413V131.758H91.2116V129.224ZM76.0089 114.021V111.488H70.9413V116.555H76.0089V114.021ZM101.347 111.488V106.42H91.2116V111.488H96.2791V116.555H101.347V111.488ZM131.752 103.886V101.353H126.685V106.42H131.752V103.886ZM141.887 98.8188V96.285H146.955V81.0823H141.887V86.1499H136.82V91.2174H131.752V86.1499H121.617V81.0823H116.549V76.0147H121.617V60.812H116.549V55.7445H111.482V50.6769H106.414V55.7445H101.347V40.5418H106.414V45.6093H111.482V40.5418H106.414V35.4742H101.347V40.5418H96.2791V55.7445H101.347V60.812H106.414V55.7445H111.482V70.9472H106.414V76.0147H101.347V81.0823H106.414V91.2174H111.482V86.1499H121.617V91.2174H126.685V96.285H136.82V101.353H141.887V98.8188ZM136.82 93.7512V91.2174H141.887V96.285H136.82V93.7512ZM55.7386 88.6836V86.1499H60.8062V81.0823H55.7386V86.1499H50.671V91.2174H55.7386V88.6836ZM70.9413 78.5485V76.0147H65.8737V81.0823H70.9413V78.5485ZM70.9413 53.2107V50.6769H65.8737V55.7445H70.9413V53.2107ZM91.2116 50.6769V45.6093H86.144V55.7445H91.2116V50.6769ZM121.617 27.8728V25.3391H116.549V30.4066H121.617V27.8728ZM162.158 164.697V162.163H167.225V167.231H162.158V164.697ZM162.158 91.2174V86.1499H157.09V81.0823H162.158V86.1499H167.225V96.285H162.158V91.2174ZM20.2656 38.008V20.2715H55.7386V55.7445H20.2656V38.008ZM50.671 38.008V25.3391H25.3332V50.6769H50.671V38.008ZM30.4008 38.008V30.4066H45.6035V45.6093H30.4008V38.008ZM131.752 38.008V20.2715H167.225V55.7445H131.752V38.008ZM162.158 38.008V25.3391H136.82V50.6769H162.158V38.008ZM141.887 38.008V30.4066H157.09V45.6093H141.887V38.008ZM60.8062 38.008V35.4742H65.8737V40.5418H60.8062V38.008ZM70.9413 32.9404V30.4066H65.8737V20.2715H70.9413V25.3391H76.0089V20.2715H81.0764V25.3391H76.0089V35.4742H70.9413V32.9404Z" fill="#C2C2C2"/>
</g>
<defs>
<filter id="filter0_f_3181_4494" x="-8" y="-8" width="203.5" height="203.5" filterUnits="userSpaceOnUse" color-interpolation-filters="sRGB">
<feFlood flood-opacity="0" result="BackgroundImageFix"/>
<feBlend mode="normal" in="SourceGraphic" in2="BackgroundImageFix" result="shape"/>
<feGaussianBlur stdDeviation="4" result="effect1_foregroundBlur_3181_4494"/>
</filter>
</defs>
</svg>
