<svg width="28" height="28" viewBox="0 0 28 28" fill="none" xmlns="http://www.w3.org/2000/svg">
<g id="analysis_svgrepo.com">
<path id="primary" d="M24.5013 17.5013L21.1996 14.1996M15.168 19.8346H8.16797M10.5013 15.168H8.16797M15.168 11.668C15.168 12.3602 15.3732 13.0369 15.7578 13.6125C16.1424 14.188 16.689 14.6366 17.3286 14.9015C17.9681 15.1665 18.6719 15.2358 19.3508 15.1007C20.0297 14.9657 20.6534 14.6323 21.1428 14.1428C21.6323 13.6534 21.9657 13.0297 22.1007 12.3508C22.2358 11.6719 22.1665 10.9681 21.9015 10.3286C21.6366 9.68904 21.188 9.14241 20.6125 8.75783C20.0369 8.37324 19.3602 8.16797 18.668 8.16797C17.7397 8.16797 16.8495 8.53672 16.1931 9.1931C15.5367 9.84947 15.168 10.7397 15.168 11.668Z" stroke="white" stroke-width="2.33333" stroke-linecap="round" stroke-linejoin="round"/>
<path id="primary_2" d="M19.8333 19.8333V23.3333C19.8333 23.6428 19.7104 23.9395 19.4916 24.1583C19.2728 24.3771 18.9761 24.5 18.6667 24.5H4.66667C4.35725 24.5 4.0605 24.3771 3.84171 24.1583C3.62292 23.9395 3.5 23.6428 3.5 23.3333V4.66667C3.5 4.35725 3.62292 4.0605 3.84171 3.84171C4.0605 3.62292 4.35725 3.5 4.66667 3.5H18.6667" stroke="white" stroke-width="2.33333" stroke-linecap="round" stroke-linejoin="round"/>
</g>
</svg>
