<svg width="40" height="40" viewBox="0 0 40 40" fill="none" xmlns="http://www.w3.org/2000/svg">
<circle cx="20" cy="20" r="20" fill="#18CD73"/>
<path d="M18.5 11C18.05 11 17.75 11.3 17.75 11.75V28.325C17.75 29.525 18.725 30.5 19.925 30.5C20.525 30.5 21.125 30.2 21.575 29.75C21.95 29.3 22.175 28.7 22.1 28.1L21.725 24.35C21.65 23.75 22.025 23.15 22.55 22.925C22.85 22.775 23 22.55 23 22.25V15.5C23 13.025 20.975 11 18.5 11Z" fill="#F7F7FB"/>
<path d="M28.775 21.2C28.7 20.45 28.925 19.7 29.45 19.1C30.125 18.35 30.5 17.225 30.5 15.875C30.5 13.1 29.15 11 27.5 11C25.85 11 24.5 13.1 24.5 15.875C24.5 17.3 24.875 18.425 25.55 19.1C26.075 19.7 26.3 20.45 26.225 21.2L25.475 28.175C25.4 28.775 25.55 29.375 25.925 29.825C26.3 30.275 26.9 30.5 27.5 30.5C28.1 30.5 28.625 30.275 29.075 29.825C29.45 29.375 29.675 28.775 29.525 28.25L28.775 21.2Z" fill="#F7F7FB"/>
<path d="M15.5 15.875V11.75C15.5 11.3 15.2 11 14.75 11C14.3 11 14 11.3 14 11.75V15.875C14 16.025 14 16.175 14 16.25H13.25V11.75C13.25 11.3 12.95 11 12.5 11C12.05 11 11.75 11.3 11.75 11.75V16.25H11C11 16.1 11 15.95 11 15.875V11.75C11 11.3 10.7 11 10.25 11C9.8 11 9.5 11.3 9.5 11.75V15.875C9.5 17.3 9.875 18.425 10.55 19.1C11.075 19.7 11.3 20.45 11.225 21.2L10.475 28.175C10.4 28.775 10.55 29.375 10.925 29.825C11.375 30.275 11.9 30.5 12.5 30.5C13.1 30.5 13.625 30.275 14.075 29.825C14.45 29.375 14.675 28.775 14.525 28.25L13.775 21.275C13.7 20.525 13.925 19.775 14.45 19.175C15.125 18.35 15.5 17.225 15.5 15.875Z" fill="#F7F7FB"/>
</svg>
