<svg width="40" height="40" viewBox="0 0 40 40" fill="none" xmlns="http://www.w3.org/2000/svg">
<circle cx="20" cy="20" r="20" fill="#18CD73"/>
<path d="M13.2006 14.6999L16.0881 17.5875L16.0806 17.6127L13.8877 25.6843C13.8502 25.8607 13.8547 26.0434 13.9011 26.2177C13.9474 26.3919 14.0341 26.5528 14.1542 26.6873L14.878 27.4111C14.9248 27.4657 14.9847 27.5077 15.052 27.5331C15.1193 27.5585 15.1919 27.5666 15.2632 27.5565C15.3345 27.5465 15.402 27.5186 15.4597 27.4755C15.5173 27.4324 15.5631 27.3755 15.593 27.31L18.5589 21.9416L19.4999 20.9993L21.9883 23.4877C22.2736 23.7422 22.5923 23.9564 22.9357 24.1243L22.3799 25.9521C22.3377 26.1264 22.3386 26.3082 22.3824 26.4821C22.4262 26.6559 22.5116 26.8165 22.6313 26.95L22.8523 27.1723C22.9652 27.2843 23.1178 27.3472 23.2768 27.3472C23.4358 27.3472 23.5883 27.2843 23.7012 27.1723L25.0149 25.8599L25.0376 25.8346L26.033 24.8418L26.0582 24.8165L27.3694 23.5041C27.4814 23.3912 27.5442 23.2387 27.5442 23.0797C27.5442 22.9207 27.4814 22.7681 27.3694 22.6553L27.1471 22.433C27.0134 22.3137 26.8527 22.2287 26.6788 22.1854C26.505 22.142 26.3232 22.1416 26.1492 22.1841L24.3214 22.7374C24.1533 22.3941 23.9391 22.0753 23.6848 21.79L21.1963 19.3016L22.1387 18.3618L27.5071 15.3959C27.5726 15.3661 27.6295 15.3202 27.6726 15.2626C27.7157 15.2049 27.7435 15.1374 27.7536 15.0661C27.7637 14.9949 27.7556 14.9222 27.7302 14.8549C27.7048 14.7876 27.6628 14.7278 27.6081 14.681L26.8843 13.9572C26.7498 13.8371 26.5889 13.7504 26.4147 13.7041C26.2405 13.6578 26.0578 13.6532 25.8814 13.6906L17.8098 15.8835L17.7846 15.8911L14.897 13.0035C14.4296 12.5336 12.8494 11.7151 12.3795 12.1824C11.9121 12.6523 12.7319 14.2313 13.2006 14.6999Z" fill="#F7F7FB"/>
</svg>
