<svg width="40" height="40" viewBox="0 0 40 40" fill="none" xmlns="http://www.w3.org/2000/svg">
<circle cx="20" cy="20" r="20" fill="#18CD73"/>
<path d="M25.6649 23.334H15.276L13.8594 14.834H28.4983L25.6649 23.334Z" fill="#F7F7FB"/>
<path d="M11.5 12H13.3889L13.8611 14.8333M13.8611 14.8333L15.2778 23.3333H25.6667L28.5 14.8333H13.8611Z" stroke="#F7F7FB" stroke-width="1.88889" stroke-linecap="round" stroke-linejoin="round"/>
<path d="M16.2218 29.0002C16.7434 29.0002 17.1662 28.5774 17.1662 28.0558C17.1662 27.5342 16.7434 27.1113 16.2218 27.1113C15.7002 27.1113 15.2773 27.5342 15.2773 28.0558C15.2773 28.5774 15.7002 29.0002 16.2218 29.0002Z" stroke="#F7F7FB" stroke-width="1.88889" stroke-linecap="round" stroke-linejoin="round"/>
<path d="M24.7218 29.0002C25.2434 29.0002 25.6662 28.5774 25.6662 28.0558C25.6662 27.5342 25.2434 27.1113 24.7218 27.1113C24.2002 27.1113 23.7773 27.5342 23.7773 28.0558C23.7773 28.5774 24.2002 29.0002 24.7218 29.0002Z" stroke="#F7F7FB" stroke-width="1.88889" stroke-linecap="round" stroke-linejoin="round"/>
</svg>
